<?xml version="1.0" standalone="no"?>
<!DOCTYPE svg PUBLIC "-//W3C//DTD SVG 20010904//EN"
 "http://www.w3.org/TR/2001/REC-SVG-20010904/DTD/svg10.dtd">
<svg version="1.0" xmlns="http://www.w3.org/2000/svg"
 width="1080.000000pt" height="1080.000000pt" viewBox="0 0 1080.000000 1080.000000"
 preserveAspectRatio="xMidYMid meet">

<g transform="translate(0.000000,1080.000000) scale(0.100000,-0.100000)"
fill="#000000" stroke="none">
<path d="M4832 9988 c-11 -14 1 -179 17 -232 5 -17 12 -74 16 -126 6 -91 20
-166 36 -183 4 -5 17 -6 29 -2 20 6 22 12 16 54 -3 25 -13 100 -21 166 -8 66
-19 140 -25 165 -5 25 -9 66 -10 92 0 25 -3 53 -6 62 -7 19 -37 21 -52 4z"/>
<path d="M5971 9888 c-5 -13 -10 -32 -12 -43 -3 -15 -13 -21 -42 -23 -46 -4
-50 -29 -7 -45 35 -13 39 -42 15 -121 -22 -71 -20 -198 3 -218 32 -29 83 -49
115 -46 27 2 32 7 32 28 0 22 -5 26 -43 31 -24 3 -48 12 -53 20 -13 21 -11 99
5 155 8 27 17 66 21 87 l6 39 60 -7 c59 -7 59 -7 59 19 0 23 -4 26 -38 26 -48
0 -62 14 -62 62 0 27 -5 40 -19 48 -27 14 -30 13 -40 -12z"/>
<path d="M5117 9850 c-50 -16 -67 -39 -49 -67 5 -8 26 -5 77 12 64 22 72 22
105 9 47 -20 60 -34 66 -76 l6 -35 -100 -5 c-82 -4 -105 -9 -130 -27 -66 -46
-60 -151 9 -187 51 -26 138 -21 187 10 l41 25 3 -22 c3 -24 34 -35 51 -18 7 7
10 56 9 139 -5 207 -30 245 -167 249 -44 1 -93 -2 -108 -7z m209 -224 c9 -38
-31 -103 -69 -110 -92 -19 -152 7 -145 62 5 45 58 72 139 72 64 0 69 -2 75
-24z"/>
<path d="M5600 9851 c-46 -10 -77 -27 -90 -51 -13 -24 -13 -86 0 -111 14 -25
77 -57 132 -65 82 -13 129 -77 76 -105 -31 -17 -156 -6 -196 17 -28 17 -34 17
-42 4 -17 -25 -6 -44 35 -64 41 -20 156 -33 199 -22 13 3 38 18 55 32 27 22
31 33 31 73 0 63 -21 80 -133 115 -96 31 -117 50 -98 92 14 31 66 40 139 24
83 -17 87 -17 90 6 5 38 -116 71 -198 55z"/>
<path d="M4217 9784 c-3 -4 -4 -26 0 -50 6 -43 5 -44 -26 -50 -30 -6 -37 -18
-25 -47 4 -11 13 -13 39 -7 l34 8 25 -78 c14 -42 26 -83 26 -89 0 -7 11 -36
24 -64 20 -45 29 -54 65 -65 35 -10 49 -10 91 4 41 13 50 21 50 40 0 32 -15
38 -49 18 -42 -25 -76 -12 -101 36 -11 21 -20 49 -20 60 0 12 -6 33 -14 48 -7
15 -16 46 -20 70 -6 42 -5 43 28 57 20 8 44 15 54 15 15 0 18 5 14 26 -4 23
-8 25 -36 19 -66 -14 -90 -11 -94 10 -7 37 -44 59 -65 39z"/>
<path d="M6806 9731 c-9 -9 -16 -21 -16 -24 0 -4 -17 -42 -37 -84 -129 -274
-173 -371 -173 -385 0 -5 10 -13 23 -18 17 -6 26 -4 39 12 18 20 38 17 38 -6
0 -20 62 -72 108 -90 64 -24 88 -21 182 24 8 3 30 29 48 56 29 44 32 56 32
120 0 63 -3 76 -30 112 -43 59 -81 77 -167 76 -40 0 -73 1 -73 2 0 2 18 40 40
85 45 93 48 114 21 128 -14 8 -22 6 -35 -8z m103 -266 c16 -8 40 -28 55 -45
88 -105 -52 -289 -172 -226 -103 54 -117 176 -29 251 46 39 96 46 146 20z"/>
<path d="M6300 9709 c-31 -13 -87 -66 -105 -99 -18 -37 -26 -110 -16 -154 12
-48 96 -130 142 -140 40 -8 123 -8 143 0 15 6 22 44 10 56 -3 4 -21 0 -41 -8
-31 -13 -39 -13 -82 3 -79 30 -103 56 -109 114 l-5 50 29 -6 c16 -4 47 -12 69
-20 106 -35 187 -56 207 -53 20 3 23 9 26 57 5 89 -34 155 -113 192 -43 20
-115 24 -155 8z m177 -94 c23 -27 33 -48 33 -72 0 -40 -11 -41 -100 -13 -34
11 -69 20 -77 20 -8 0 -28 7 -44 16 -38 19 -35 41 11 72 29 20 44 23 89 19 49
-3 59 -8 88 -42z"/>
<path d="M3891 9671 c-11 -7 -10 -15 5 -47 13 -27 15 -39 6 -42 -6 -2 -22 -11
-33 -21 -29 -24 -16 -43 26 -39 19 1 37 -1 41 -4 3 -4 18 -40 32 -80 13 -40
31 -82 38 -93 8 -11 14 -27 14 -35 0 -24 40 -57 77 -65 42 -8 104 9 131 38 21
22 21 23 2 35 -16 10 -26 9 -54 -4 -48 -23 -77 -13 -104 38 -12 24 -22 47 -22
51 0 5 -6 23 -14 40 -16 36 -36 96 -36 108 0 4 20 15 45 26 29 12 45 24 45 36
0 21 -25 33 -43 20 -6 -6 -26 -13 -43 -16 -28 -5 -33 -2 -47 29 -17 34 -38 42
-66 25z"/>
<path d="M4655 9635 c-27 -8 -63 -17 -78 -20 -22 -4 -28 -11 -25 -28 4 -26 23
-27 131 -7 66 13 74 20 61 54 -7 19 -22 19 -89 1z"/>
<path d="M7290 9480 c-15 -29 -4 -57 25 -62 30 -6 42 1 46 28 8 46 -50 73 -71
34z"/>
<path d="M3639 9454 c-84 -26 -139 -101 -139 -189 0 -105 71 -191 173 -210 81
-15 243 80 235 138 -5 36 -37 33 -70 -7 -36 -44 -95 -76 -140 -76 -43 1 -108
51 -91 72 6 7 69 42 138 78 70 36 129 71 132 78 9 22 -65 101 -105 111 -70 19
-87 19 -133 5z m122 -67 c19 -12 34 -29 34 -36 0 -7 -38 -32 -84 -57 -46 -24
-91 -50 -100 -58 -25 -23 -32 -23 -46 3 -34 64 48 171 131 171 17 0 46 -10 65
-23z"/>
<path d="M7380 9183 c-73 -109 -143 -212 -156 -229 -30 -38 -30 -50 -3 -65 30
-15 40 -3 204 240 l137 204 -25 24 -24 25 -133 -199z"/>
<path d="M7218 9333 c-8 -10 -32 -47 -54 -83 -54 -90 -54 -90 -97 -166 l-39
-68 23 -19 c22 -18 23 -18 45 10 13 15 23 32 24 36 0 5 13 27 29 50 15 23 39
62 52 87 14 25 37 64 52 87 32 51 33 59 8 73 -25 13 -25 13 -43 -7z"/>
<path d="M3031 9230 c-28 -24 -27 -27 59 -147 95 -131 105 -146 120 -168 58
-89 93 -135 102 -135 6 0 19 6 27 14 15 13 62 46 183 129 79 55 86 64 62 87
-19 19 -20 18 -76 -23 -129 -95 -163 -117 -175 -117 -7 0 -25 19 -40 42 -16
24 -62 90 -103 148 -41 58 -88 124 -104 148 -16 23 -29 42 -30 42 0 -1 -12
-10 -25 -20z"/>
<path d="M7512 8728 c-25 -25 -2 -78 35 -78 28 0 45 23 41 57 -2 23 -8 29 -33
31 -17 2 -36 -3 -43 -10z"/>
<path d="M8175 8625 c-22 -8 -74 -23 -115 -35 -77 -21 -119 -33 -252 -72 -43
-12 -78 -25 -78 -29 0 -4 8 -17 19 -30 18 -22 19 -22 62 -7 82 30 93 30 121 0
14 -15 56 -65 92 -111 l67 -83 -14 -37 c-9 -20 -22 -49 -31 -66 -15 -28 -14
-31 7 -55 12 -14 23 -27 24 -29 1 -2 11 16 22 40 10 24 51 112 91 194 39 83
81 170 92 195 11 25 26 56 33 70 11 22 11 28 -5 48 -21 26 -72 29 -135 7z m9
-190 c-31 -63 -60 -115 -63 -115 -8 0 -154 170 -149 174 13 12 105 46 124 46
13 0 41 6 61 14 54 21 78 23 81 9 2 -7 -22 -65 -54 -128z"/>
<path d="M2992 8614 c-16 -11 -22 -24 -20 -42 3 -23 8 -27 42 -30 57 -5 75 30
34 68 -26 24 -27 24 -56 4z"/>
<path d="M2495 8503 c-31 -9 -92 -60 -115 -99 -19 -29 -22 -46 -18 -107 4 -81
16 -103 84 -156 91 -69 222 -41 292 63 25 37 32 59 32 95 0 26 -3 50 -6 54
-15 14 -34 -9 -49 -58 -17 -60 -76 -120 -123 -127 -36 -5 -85 5 -89 18 -2 6
20 41 49 78 78 99 137 180 138 188 0 3 -16 15 -36 27 -36 21 -122 34 -159 24z
m100 -67 c18 -13 18 -15 1 -41 -10 -14 -32 -43 -50 -63 -17 -20 -44 -54 -60
-75 -27 -37 -29 -38 -47 -21 -25 22 -34 75 -20 117 11 34 53 80 81 90 29 10
76 7 95 -7z"/>
<path d="M8382 8233 c-40 -8 -113 -56 -143 -93 -42 -52 -72 -143 -63 -194 3
-22 10 -47 14 -56 40 -84 60 -116 89 -142 43 -38 100 -63 113 -50 16 16 5 56
-17 60 -30 6 -94 72 -116 121 -24 55 -24 107 0 163 21 48 65 98 85 98 8 0 19
7 26 15 20 24 148 20 180 -5 14 -11 30 -20 35 -20 23 0 78 -110 84 -168 6 -53
8 -57 34 -60 27 -3 27 -3 27 57 0 33 -4 62 -9 65 -4 3 -11 18 -14 34 -7 34
-84 122 -132 152 -35 21 -143 34 -193 23z"/>
<path d="M2228 8140 c-63 -34 -117 -121 -118 -189 0 -85 60 -169 141 -195 58
-19 73 -20 122 -2 89 31 153 118 151 208 -1 57 -13 75 -41 60 -14 -8 -18 -22
-18 -60 0 -95 -74 -163 -162 -149 -53 9 -106 49 -127 96 -19 40 -19 42 -1 84
23 53 42 75 80 94 37 19 44 30 38 54 -7 24 -18 23 -65 -1z"/>
<path d="M1820 7810 c-22 -42 11 -81 51 -59 15 8 19 19 17 42 -2 26 -8 33 -30
35 -19 2 -30 -3 -38 -18z"/>
<path d="M1970 7741 c-5 -11 -10 -24 -10 -30 0 -8 101 -60 250 -128 30 -14 67
-32 83 -40 26 -14 28 -13 37 12 6 15 7 31 4 37 -3 5 -50 30 -103 55 -53 25
-127 60 -165 79 -80 40 -82 40 -96 15z"/>
<path d="M1896 7583 c-6 -14 21 -45 121 -142 l128 -125 -30 -8 c-17 -5 -94
-12 -173 -15 -130 -5 -144 -8 -157 -27 -8 -11 -15 -24 -15 -28 0 -18 407 7
438 26 7 4 12 19 12 34 0 22 -27 53 -142 162 -77 74 -149 136 -158 138 -10 2
-21 -5 -24 -15z"/>
<path d="M8455 7434 c-9 -9 -15 -28 -13 -43 3 -23 7 -26 43 -26 34 0 40 3 43
23 4 25 -23 62 -44 62 -7 0 -20 -7 -29 -16z"/>
<path d="M1757 7173 c-13 -12 -7 -99 8 -119 20 -27 19 -32 -12 -36 -22 -2 -29
-9 -31 -29 -3 -24 1 -27 45 -37 70 -16 158 -38 235 -58 55 -14 70 -14 83 -4
23 19 19 49 -7 54 -13 3 -34 7 -48 10 -65 13 -144 39 -175 58 -34 20 -40 34
-47 112 -3 28 -38 63 -51 49z"/>
<path d="M9058 7175 c-5 -6 -169 -42 -251 -55 -32 -6 -66 -14 -75 -19 -9 -5
-44 -12 -78 -16 -89 -10 -91 -12 -76 -87 45 -239 78 -303 182 -357 91 -47 254
-15 316 63 61 76 80 187 49 276 -8 23 -15 55 -15 69 0 15 -7 51 -15 79 -15 48
-24 60 -37 47z m-12 -112 c3 -16 12 -46 20 -68 31 -90 11 -198 -48 -251 -38
-36 -105 -64 -148 -64 -90 0 -181 81 -201 179 -6 31 -15 61 -21 68 -5 6 -8 28
-6 49 3 42 -1 40 201 78 42 8 85 20 95 25 9 6 36 11 59 11 38 0 43 -3 49 -27z"/>
<path d="M1744 6800 c-51 -26 -81 -65 -94 -126 -24 -107 17 -189 115 -235 74
-35 178 -14 228 45 58 68 74 174 37 246 -18 36 -22 39 -40 28 -22 -14 -26 -33
-10 -43 6 -3 10 -34 10 -67 0 -75 -25 -120 -82 -149 -57 -29 -64 -18 -50 78 7
43 16 109 22 148 6 38 8 75 6 82 -8 20 -95 16 -142 -7z m82 -117 c-8 -96 -26
-183 -38 -183 -5 0 -21 6 -37 14 -37 20 -65 84 -57 131 8 42 57 102 89 108 51
10 50 12 43 -70z"/>
<path d="M8803 6522 c-52 -21 -80 -47 -104 -94 -26 -52 -26 -150 1 -207 24
-49 45 -60 68 -38 15 15 14 19 -6 46 -18 24 -22 44 -22 100 0 69 0 70 42 105
23 20 47 36 54 36 8 0 15 -47 23 -147 7 -82 16 -155 20 -163 23 -40 140 8 181
75 19 31 22 47 18 115 -3 74 -5 81 -38 116 -66 69 -153 90 -237 56z m173 -77
c40 -30 60 -87 50 -140 -9 -44 -59 -95 -93 -95 -21 0 -23 4 -23 53 0 30 -3 88
-6 130 -7 76 -6 77 16 77 13 0 38 -11 56 -25z"/>
<path d="M1787 6326 c-30 -28 -66 -99 -67 -131 0 -31 -34 -112 -58 -140 -38
-44 -89 -29 -122 35 -25 49 -25 82 -1 153 15 44 17 59 7 72 -17 24 -43 9 -58
-33 -19 -56 -16 -200 5 -239 29 -53 62 -73 127 -73 84 0 110 29 150 170 27 98
40 122 73 138 57 28 117 -37 117 -128 0 -26 -11 -71 -27 -108 -24 -58 -25 -64
-10 -79 15 -15 18 -15 35 0 19 18 47 96 58 163 8 56 -22 156 -58 191 -22 21
-40 28 -85 31 -52 4 -61 1 -86 -22z"/>
<path d="M8687 6018 c-9 -32 -1 -38 53 -38 45 0 51 -3 89 -47 46 -54 46 -56
-38 -112 -123 -82 -121 -80 -121 -109 0 -39 8 -44 39 -23 14 10 65 44 113 76
l88 59 25 -24 c14 -14 44 -48 67 -77 45 -59 68 -68 68 -25 0 19 -27 62 -90
142 -50 63 -90 119 -90 124 0 5 28 6 63 2 161 -17 283 -24 290 -17 5 5 7 19 5
32 -3 23 -8 24 -93 31 -49 3 -135 11 -190 17 -55 6 -139 10 -186 11 -81 0 -87
-2 -92 -22z"/>
<path d="M1973 5692 c-25 -16 -20 -78 6 -87 24 -7 44 1 59 26 25 39 -26 86
-65 61z"/>
<path d="M8646 5584 c-13 -33 -6 -42 37 -49 61 -10 73 -19 101 -75 23 -46 24
-51 8 -56 -32 -10 -122 -56 -128 -65 -3 -5 -13 -9 -23 -9 -23 0 -57 -38 -65
-72 -7 -31 -18 -35 -36 -13 -19 22 -40 18 -40 -8 0 -22 9 -30 309 -257 33 -25
84 -63 112 -85 29 -22 80 -59 113 -82 59 -40 61 -41 69 -20 10 26 -2 38 -150
148 -217 162 -318 239 -347 262 l-30 24 123 62 c67 33 129 61 137 61 7 0 21
-12 30 -27 78 -127 99 -154 106 -136 14 37 6 59 -62 175 -38 65 -70 123 -70
128 0 16 8 15 227 -36 34 -8 77 -14 97 -14 29 0 36 4 36 20 0 11 0 23 0 28 1
4 -19 10 -42 14 -24 3 -61 11 -83 17 -79 21 -224 51 -247 51 -13 0 -41 7 -63
15 -55 19 -111 19 -119 -1z"/>
<path d="M2010 5295 c-30 -8 -82 -21 -115 -29 -33 -7 -71 -18 -85 -24 -14 -5
-46 -12 -72 -16 -26 -4 -50 -11 -53 -17 -4 -5 -16 -9 -28 -9 -12 0 -39 -5 -60
-11 -31 -8 -38 -14 -35 -32 4 -29 60 -34 131 -13 80 24 236 64 345 88 73 17
92 31 76 56 -14 22 -36 23 -104 7z"/>
<path d="M2080 5103 c-25 -8 -61 -20 -80 -28 -19 -7 -96 -32 -170 -55 -74 -24
-139 -47 -144 -51 -6 -5 -20 -9 -32 -9 -29 0 -34 -9 -23 -37 10 -26 36 -29 82
-10 18 8 59 22 92 32 33 10 98 31 145 47 47 16 101 34 120 38 44 11 110 38
110 46 0 3 -5 14 -10 25 -12 22 -27 22 -90 2z"/>
<path d="M8466 4905 c-9 -13 -16 -28 -16 -32 0 -4 46 -28 101 -53 56 -25 103
-48 105 -51 5 -8 -12 -49 -76 -185 -44 -94 -50 -102 -72 -97 -12 3 -30 11 -38
18 -8 6 -40 22 -70 34 -30 13 -59 27 -64 32 -15 14 -22 11 -32 -13 -14 -32 -7
-56 19 -63 12 -4 60 -25 106 -47 46 -22 103 -48 126 -58 38 -16 92 -41 184
-84 19 -9 25 -7 37 9 21 29 0 51 -81 88 -118 53 -112 46 -82 108 14 30 43 93
65 141 46 100 35 97 151 39 59 -30 111 -40 111 -22 0 5 3 16 6 25 5 12 -20 28
-110 71 -64 30 -118 55 -121 55 -3 0 -213 98 -226 106 -4 2 -14 -7 -23 -21z"/>
<path d="M2009 4892 c-59 -30 -93 -73 -110 -134 -13 -48 -5 -88 30 -152 67
-126 225 -143 328 -34 43 46 57 104 42 176 -14 71 -49 116 -110 148 -64 32
-114 31 -180 -4z m146 -51 c49 -23 70 -46 89 -97 13 -37 12 -44 -8 -84 -71
-149 -277 -116 -280 44 0 66 22 100 89 132 60 28 59 28 110 5z"/>
<path d="M8132 4567 c-44 -46 -50 -138 -14 -180 9 -10 54 -40 101 -68 47 -28
129 -77 181 -109 52 -33 102 -60 111 -60 16 0 29 19 29 41 0 10 -78 62 -240
158 -58 35 -115 72 -127 84 -30 27 -29 58 3 96 21 26 24 34 14 46 -17 21 -33
19 -58 -8z"/>
<path d="M2350 4374 c-78 -45 -102 -54 -142 -54 -42 0 -53 5 -83 35 -38 37
-65 38 -65 1 0 -27 35 -62 73 -71 30 -8 35 -22 12 -31 -20 -8 -19 -53 1 -61 9
-3 24 -1 33 5 9 7 27 17 40 22 13 6 38 21 55 33 32 23 40 27 152 87 49 26 64
39 62 54 -6 41 -40 36 -138 -20z"/>
<path d="M2505 4280 c-4 -6 5 -24 19 -41 28 -33 33 -66 14 -91 -13 -17 -152
-119 -188 -138 -17 -9 -23 -4 -46 30 -27 41 -60 53 -70 25 -3 -7 5 -29 19 -47
39 -54 40 -56 7 -73 -33 -17 -41 -52 -14 -62 9 -3 33 0 52 7 33 12 37 11 54
-10 23 -28 52 -20 45 13 -2 12 -7 29 -11 37 -7 16 4 25 147 124 69 47 92 84
82 132 -11 63 -89 128 -110 94z"/>
<path d="M8047 4148 c-46 -37 -77 -95 -77 -142 0 -32 -2 -34 -32 -32 -26 1
-34 -3 -36 -19 -2 -16 29 -46 143 -133 80 -62 152 -112 160 -112 12 0 35 28
35 43 0 3 -43 38 -95 77 -108 82 -130 113 -122 174 4 31 15 50 46 78 62 58 85
52 233 -64 l90 -70 16 24 c10 12 17 26 17 29 0 9 -179 145 -215 164 -16 8 -51
15 -77 15 -39 -1 -55 -7 -86 -32z"/>
<path d="M8614 4126 c-12 -31 0 -71 23 -74 31 -5 59 39 43 67 -12 24 -58 29
-66 7z"/>
<path d="M2602 3923 l-102 -98 0 -64 c0 -55 4 -68 30 -101 37 -47 88 -80 124
-80 26 0 26 -1 12 -29 -14 -26 -14 -30 3 -45 17 -16 22 -13 93 51 41 37 103
91 136 118 66 54 84 87 60 112 -13 13 -22 8 -79 -38 -35 -30 -77 -66 -94 -81
-77 -71 -206 -34 -222 65 -8 50 20 90 122 177 47 40 85 75 85 79 0 14 -25 31
-45 31 -13 0 -60 -38 -123 -97z"/>
<path d="M7775 3830 c-18 -20 -18 -21 16 -56 19 -20 106 -103 194 -185 160
-149 197 -172 212 -132 5 12 -13 36 -68 86 -41 39 -129 122 -197 186 -68 64
-126 117 -131 119 -4 1 -16 -7 -26 -18z"/>
<path d="M3010 3611 c-49 -10 -77 -30 -109 -77 -55 -81 -49 -189 15 -255 50
-51 91 -69 159 -69 64 0 97 14 141 62 46 49 54 69 54 146 0 72 -11 96 -65 146
-49 45 -121 63 -195 47z m124 -65 c45 -19 76 -72 76 -130 0 -121 -141 -191
-232 -115 -130 107 -1 311 156 245z"/>
<path d="M7493 3564 c-9 -24 10 -68 30 -72 23 -5 57 25 57 49 0 35 -75 54 -87
23z"/>
<path d="M3376 3401 c-6 -9 11 -229 19 -241 2 -4 -1 -15 -9 -25 -8 -12 -40
-22 -97 -32 -94 -16 -109 -24 -88 -49 11 -13 25 -15 76 -11 35 4 71 10 80 15
10 5 54 13 97 17 l80 7 -16 -23 c-8 -13 -45 -73 -83 -134 -37 -60 -74 -117
-82 -126 -11 -13 -9 -19 12 -39 15 -14 29 -20 34 -14 4 5 70 107 145 227 141
223 155 259 109 265 -16 2 -26 -5 -38 -27 -21 -42 -55 -62 -106 -64 l-43 -2
-12 50 c-7 28 -13 80 -13 117 -1 57 -4 69 -23 82 -26 18 -35 20 -42 7z"/>
<path d="M7120 3293 c-150 -86 -194 -122 -215 -177 -16 -41 -16 -45 3 -87 28
-62 53 -81 111 -87 l49 -4 -10 -29 c-12 -36 -3 -87 20 -114 44 -53 98 -68 159
-44 51 19 252 141 257 156 5 13 -34 87 -104 198 -31 48 -86 140 -113 189 -16
28 -32 54 -36 58 -4 4 -58 -22 -121 -59z m122 -69 c61 -104 58 -98 45 -111 -7
-6 -52 -34 -100 -62 -107 -62 -162 -69 -196 -25 -36 46 -28 81 30 136 28 26
55 48 60 48 4 0 34 16 66 35 32 19 59 35 60 35 0 0 16 -25 35 -56z m114 -196
c29 -45 65 -111 61 -113 -1 -1 -24 -15 -52 -32 -84 -52 -149 -83 -172 -83 -36
0 -73 45 -73 89 0 45 23 70 130 135 41 25 76 46 76 46 1 0 14 -19 30 -42z"/>
<path d="M6633 3045 c-130 -41 -190 -172 -131 -287 30 -60 45 -76 96 -98 59
-26 108 -25 175 4 80 36 110 80 115 167 7 111 -37 181 -132 213 -57 19 -66 19
-123 1z m100 -59 c18 -7 45 -28 62 -45 27 -29 30 -39 30 -98 0 -65 0 -66 -44
-104 -37 -33 -50 -39 -89 -39 -83 0 -143 59 -145 143 -1 68 25 113 78 138 49
22 67 23 108 5z"/>
<path d="M3684 2978 c-4 -12 -3 -23 3 -25 5 -2 45 -21 88 -43 73 -36 81 -38
93 -23 6 9 12 22 12 27 0 12 -149 86 -173 86 -9 0 -19 -10 -23 -22z"/>
<path d="M4093 2970 c-44 -20 -99 -84 -110 -129 -3 -14 -9 -31 -14 -36 -4 -6
-12 -29 -18 -50 -5 -22 -24 -78 -40 -125 -17 -46 -31 -85 -31 -87 0 -1 13 -9
29 -17 l29 -15 19 52 c11 29 32 91 48 139 15 47 39 110 54 139 22 45 34 57 73
73 45 19 49 19 102 2 40 -13 65 -28 86 -54 38 -46 39 -91 4 -192 -14 -41 -29
-88 -33 -105 -5 -16 -16 -47 -25 -67 -9 -21 -16 -51 -16 -68 0 -26 3 -30 28
-30 28 0 30 3 85 169 32 93 57 186 57 207 -1 91 -68 169 -170 197 -75 21 -104
20 -157 -3z"/>
<path d="M6303 2922 c-6 -4 -13 -19 -15 -34 -3 -27 -4 -28 -32 -13 -47 25
-114 19 -174 -16 -43 -24 -58 -40 -78 -82 -27 -59 -30 -100 -10 -138 7 -14 16
-36 19 -50 10 -38 67 -87 119 -100 66 -18 146 2 194 49 19 19 37 32 40 30 5
-6 32 -97 43 -151 11 -47 14 -51 46 -43 29 7 31 23 10 92 -15 50 -41 152 -55
214 -51 226 -69 267 -107 242z m-43 -105 c72 -38 101 -143 57 -208 -26 -38
-88 -72 -131 -71 -47 1 -102 45 -122 98 -15 40 -16 52 -5 92 15 57 26 71 76
93 52 24 73 24 125 -4z"/>
<path d="M4567 2863 c-4 -3 -7 -16 -7 -28 0 -24 30 -35 92 -35 16 0 38 -4 48
-10 10 -5 49 -13 87 -18 l68 -7 -1 -40 c-2 -57 -27 -141 -42 -137 -7 1 -48 5
-90 9 -42 3 -81 9 -87 13 -5 4 -25 10 -42 13 -31 6 -33 5 -33 -23 0 -31 0 -31
80 -45 111 -18 169 -31 175 -37 4 -4 2 -28 -4 -55 -6 -26 -13 -60 -16 -75 -5
-26 -8 -28 -59 -28 -29 0 -72 6 -94 14 -22 8 -64 16 -93 18 -52 3 -54 2 -57
-24 -3 -25 0 -27 40 -32 56 -7 87 -12 178 -30 41 -8 89 -15 107 -16 30 0 33 3
38 38 3 20 12 69 20 107 9 39 15 84 15 101 0 17 7 53 15 79 8 27 17 79 21 115
6 66 6 67 -22 78 -16 7 -72 19 -124 27 -52 8 -115 19 -140 24 -55 12 -65 13
-73 4z"/>
<path d="M5804 2806 c-7 -18 13 -187 26 -221 6 -15 10 -47 10 -73 0 -65 9 -92
30 -92 45 0 48 57 14 223 -8 38 -14 86 -14 107 0 21 -3 45 -6 54 -8 20 -53 21
-60 2z"/>
<path d="M5604 2789 c-8 -14 4 -260 17 -316 5 -23 12 -87 15 -143 l7 -101 26
3 c25 3 26 6 29 67 2 36 -4 112 -12 170 -9 59 -16 136 -16 172 0 37 -3 87 -6
113 -6 40 -10 46 -30 46 -12 0 -26 -5 -30 -11z"/>
<path d="M5245 2770 c-12 -13 -15 -27 -11 -45 5 -20 12 -25 39 -25 55 0 76 40
39 73 -24 22 -45 21 -67 -3z"/>
<path d="M5874 2316 c-3 -8 -4 -25 -2 -38 2 -18 9 -23 33 -23 28 0 30 3 30 35
0 31 -3 35 -28 38 -17 2 -29 -2 -33 -12z"/>
</g>
</svg>
