<?xml version="1.0" standalone="no"?>
<!DOCTYPE svg PUBLIC "-//W3C//DTD SVG 20010904//EN"
 "http://www.w3.org/TR/2001/REC-SVG-20010904/DTD/svg10.dtd">
<svg version="1.0" xmlns="http://www.w3.org/2000/svg"
 width="1080.000000pt" height="1080.000000pt" viewBox="0 0 1080.000000 1080.000000"
 preserveAspectRatio="xMidYMid meet">

<g transform="translate(0.000000,1080.000000) scale(0.100000,-0.100000)"
fill="#000000" stroke="none">
<path d="M5170 9175 c0 -225 0 -226 23 -234 27 -11 37 -6 37 20 0 20 0 20 26
0 21 -17 41 -21 94 -21 87 0 127 24 153 95 17 44 17 56 7 100 -17 69 -35 94
-83 116 -56 25 -103 24 -153 -5 l-42 -24 -6 37 c-3 20 -6 60 -6 89 0 49 -2 52
-25 52 l-25 0 0 -225z m242 25 c14 -11 33 -38 42 -60 15 -37 15 -43 0 -80 -22
-56 -56 -80 -111 -80 -38 0 -50 5 -79 34 -30 30 -34 40 -34 86 0 54 23 97 58
112 35 14 99 8 124 -12z"/>
<path d="M5622 9388 c-18 -18 -15 -33 13 -48 22 -12 28 -12 43 3 13 13 14 21
6 35 -14 21 -45 27 -62 10z"/>
<path d="M5806 9290 c-4 -50 -11 -104 -16 -121 -16 -55 -24 -245 -11 -253 15
-10 40 10 40 32 1 35 30 280 41 346 13 72 8 85 -31 86 -13 0 -18 -17 -23 -90z"/>
<path d="M5617 9243 c-3 -4 -8 -77 -12 -160 -7 -151 -7 -153 13 -153 29 0 40
47 44 195 3 116 2 120 -19 123 -11 2 -23 0 -26 -5z"/>
<path d="M4507 9233 c-15 -4 -17 -11 -12 -43 5 -32 3 -38 -14 -43 -33 -8 -26
-37 8 -37 25 0 30 -4 35 -37 4 -21 13 -58 21 -83 7 -25 16 -57 19 -73 4 -15
15 -36 26 -47 26 -26 99 -27 130 -2 31 25 18 44 -25 36 -39 -7 -75 2 -75 19 0
7 -6 23 -13 38 -8 14 -16 47 -20 75 -3 27 -9 57 -12 66 -5 13 0 20 22 29 47
19 55 24 54 34 -1 6 -22 10 -48 10 -44 0 -47 2 -55 33 -5 17 -12 31 -16 31 -4
-1 -15 -3 -25 -6z"/>
<path d="M4854 9216 c-73 -34 -98 -77 -92 -162 4 -60 7 -68 45 -106 l42 -41
81 0 c75 1 85 4 111 29 23 22 26 31 18 46 -9 18 -12 17 -47 -12 -46 -38 -100
-41 -149 -7 -70 47 -52 87 41 87 51 0 172 22 183 34 7 6 -37 93 -55 109 -22
20 -85 47 -109 47 -10 0 -41 -11 -69 -24z m145 -58 c46 -35 40 -53 -21 -66
-29 -6 -79 -13 -112 -16 l-58 -5 6 31 c7 35 31 66 61 79 32 14 92 3 124 -23z"/>
<path d="M6457 9017 c-38 -100 -71 -195 -74 -210 -5 -26 -3 -28 22 -25 22 2
31 11 44 47 13 34 26 48 61 67 25 13 50 24 56 24 5 0 20 -26 33 -57 12 -32 28
-72 35 -88 7 -17 16 -44 20 -62 8 -35 33 -50 52 -31 11 11 9 21 -6 57 -11 24
-20 50 -20 58 0 8 -6 24 -12 36 -22 39 -37 111 -26 124 9 12 25 20 152 79 54
25 58 28 41 40 -10 8 -23 14 -27 14 -5 0 -66 -27 -136 -61 -155 -74 -172 -81
-172 -69 0 5 16 51 35 102 19 51 35 98 35 105 0 10 -30 33 -42 33 -2 0 -34
-82 -71 -183z"/>
<path d="M4275 9084 c-48 -17 -95 -65 -95 -99 0 -70 51 -107 119 -86 87 26
140 7 127 -45 -8 -32 -58 -54 -126 -54 -27 0 -50 -4 -50 -9 0 -5 -3 -16 -6
-25 -10 -27 92 -21 159 9 64 28 92 68 82 115 -10 46 -27 53 -128 52 -98 -2
-108 1 -125 34 -10 18 -7 24 21 44 20 16 50 25 84 28 48 4 53 7 53 28 0 21 -4
24 -37 23 -21 -1 -56 -8 -78 -15z"/>
<path d="M6909 8913 c-33 -71 -77 -161 -96 -201 -36 -75 -37 -102 -5 -102 13
0 30 25 62 93 24 50 67 141 97 201 30 60 51 116 49 123 -3 7 -14 13 -25 13
-16 0 -33 -27 -82 -127z"/>
<path d="M3925 8945 c-27 -14 -63 -40 -78 -57 -26 -32 -27 -33 -8 -42 15 -7
27 -1 57 28 33 32 43 36 91 36 49 0 54 -2 64 -27 8 -23 7 -30 -8 -40 -10 -7
-23 -16 -28 -21 -6 -5 -22 -12 -35 -15 -14 -3 -40 -20 -57 -36 -43 -39 -46
-90 -7 -126 14 -13 35 -27 46 -31 31 -9 104 24 138 63 23 26 34 33 43 24 34
-34 50 12 23 66 -8 15 -26 53 -40 83 -30 63 -41 79 -76 103 -33 23 -65 21
-125 -8z m172 -162 c15 -44 -13 -99 -58 -112 -50 -15 -63 -14 -83 8 -29 31
-16 62 39 98 62 41 90 43 102 6z"/>
<path d="M7131 8946 c-21 -26 -9 -51 24 -51 27 0 30 3 30 30 0 23 -5 31 -21
33 -11 2 -26 -4 -33 -12z"/>
<path d="M6077 8924 c-13 -13 -7 -51 9 -65 23 -19 49 1 49 37 0 24 -5 30 -25
32 -14 2 -29 0 -33 -4z"/>
<path d="M7061 8813 c-6 -16 -31 -64 -55 -108 -25 -44 -54 -96 -65 -116 -22
-40 -19 -49 14 -49 17 0 33 20 75 98 30 53 63 113 74 133 17 31 18 39 7 53
-20 24 -38 20 -50 -11z"/>
<path d="M3443 8794 c-3 -8 4 -28 16 -44 11 -16 21 -33 21 -37 0 -5 12 -26 27
-48 28 -41 41 -62 82 -138 13 -25 34 -57 46 -73 24 -30 31 -29 85 5 8 6 47 28
86 51 40 22 79 49 88 59 15 16 15 19 1 31 -13 11 -21 10 -45 -8 -16 -12 -31
-22 -34 -22 -3 0 -31 -16 -63 -35 -32 -19 -63 -35 -70 -35 -9 0 -49 57 -76
110 -4 8 -25 42 -47 75 -22 33 -46 75 -54 93 -16 35 -52 44 -63 16z"/>
<path d="M7208 8692 c-18 -27 -51 -73 -73 -103 -22 -30 -48 -66 -57 -80 -16
-25 -16 -27 7 -37 21 -10 27 -5 79 68 31 43 63 84 72 91 26 21 101 15 128 -10
51 -48 43 -87 -45 -204 -51 -68 -52 -69 -32 -88 19 -20 20 -19 78 60 81 109
128 133 185 95 36 -25 50 -45 50 -74 0 -25 -10 -43 -94 -165 -33 -46 -37 -58
-25 -66 31 -19 29 -21 125 116 38 55 49 78 49 110 0 77 -68 135 -159 135 -43
0 -46 2 -46 26 0 54 -56 104 -132 118 -31 6 -37 11 -35 29 1 16 -4 23 -20 25
-17 3 -30 -8 -55 -46z"/>
<path d="M3191 8493 l-34 -27 -15 22 c-15 23 -46 29 -57 11 -4 -5 0 -18 9 -28
20 -22 20 -45 1 -61 -8 -7 -15 -17 -15 -22 0 -17 31 -20 49 -4 16 15 22 10 94
-74 87 -101 112 -114 166 -84 41 23 57 45 47 69 -6 17 -8 16 -31 -5 -35 -33
-74 -29 -105 11 -14 18 -42 53 -62 77 -21 24 -38 49 -38 57 0 7 14 23 30 35
25 18 28 25 19 36 -15 19 -19 18 -58 -13z"/>
<path d="M3009 8333 c-8 -11 -23 -25 -34 -31 -17 -9 -24 -6 -46 14 l-26 24
-18 -20 c-18 -20 -18 -21 5 -45 23 -24 23 -25 5 -45 -16 -18 -16 -20 -1 -26 9
-3 27 -3 40 0 20 5 33 -4 83 -60 98 -110 137 -123 202 -68 32 27 39 52 19 72
-9 9 -16 5 -30 -18 -31 -52 -61 -42 -144 48 l-73 77 32 33 c28 29 30 34 15 48
-14 14 -17 14 -29 -3z"/>
<path d="M7766 8304 c-3 -9 -6 -17 -6 -19 0 -2 22 -16 49 -31 31 -18 55 -40
65 -61 20 -43 20 -52 -3 -83 l-19 -24 -60 57 c-55 52 -64 57 -105 57 -38 0
-49 -5 -72 -32 -20 -24 -25 -38 -21 -60 11 -56 86 -128 133 -128 8 0 11 -5 8
-10 -8 -14 4 -50 17 -50 6 0 46 35 89 77 93 90 109 126 88 194 -15 46 -60 88
-121 113 -32 14 -37 14 -42 0z m6 -195 l51 -51 -21 -21 c-41 -40 -124 -18
-148 39 -14 32 -13 38 1 60 25 39 59 31 117 -27z"/>
<path d="M2743 8060 c-54 -54 -70 -109 -48 -170 20 -56 38 -76 93 -100 56 -25
96 -24 147 3 70 39 128 155 82 165 -12 2 -22 -9 -36 -40 -28 -64 -62 -91 -115
-92 -68 -1 -78 16 -35 62 20 20 53 60 75 87 21 28 45 54 52 58 38 25 -34 67
-116 67 -56 0 -62 -2 -99 -40z m154 -12 c7 -6 9 -16 5 -23 -15 -26 -126 -145
-135 -145 -18 0 -36 35 -37 67 0 20 10 43 27 64 45 53 101 68 140 37z"/>
<path d="M8035 8020 c-6 -9 19 -39 47 -56 27 -17 58 -67 58 -94 0 -15 -8 -38
-19 -51 l-18 -23 -34 39 c-67 78 -91 95 -132 95 -50 0 -71 -12 -87 -49 -9 -23
-9 -38 0 -65 12 -36 80 -106 104 -106 8 0 14 -11 14 -26 0 -44 17 -50 55 -18
19 16 60 49 91 74 32 24 65 58 73 74 30 57 -2 130 -80 187 -42 30 -62 36 -72
19z m-17 -187 l53 -58 -28 -22 c-15 -13 -36 -23 -46 -23 -37 0 -107 71 -107
110 0 16 38 50 57 50 10 0 41 -26 71 -57z"/>
<path d="M2341 7716 c-13 -16 16 -41 154 -136 36 -25 88 -62 117 -82 28 -21
59 -38 68 -38 9 0 39 31 66 70 27 39 61 87 77 107 15 19 27 41 27 48 0 17 -32
43 -37 30 -1 -5 -32 -52 -67 -103 l-64 -93 -83 58 c-252 173 -237 164 -258
139z"/>
<path d="M8261 7695 c-29 -19 -54 -35 -57 -35 -12 0 -143 -92 -147 -104 -12
-31 37 -36 74 -7 46 36 130 81 151 81 53 0 108 -62 108 -122 0 -26 -50 -73
-128 -121 -49 -30 -62 -44 -62 -63 0 -27 11 -30 43 -10 182 113 197 128 197
194 0 58 -23 98 -75 131 -31 20 -41 31 -34 38 11 11 3 53 -9 53 -4 0 -31 -16
-61 -35z"/>
<path d="M8525 7332 c-16 -9 -37 -19 -45 -24 -8 -4 -22 -11 -30 -14 -129 -51
-180 -79 -180 -99 0 -31 9 -36 39 -21 55 28 98 46 139 61 38 13 47 13 80 -1
30 -11 41 -23 54 -57 22 -59 6 -95 -57 -131 -26 -14 -53 -26 -60 -26 -7 0 -18
-6 -24 -14 -6 -7 -25 -16 -41 -20 -20 -3 -30 -12 -30 -23 0 -39 13 -42 70 -16
189 86 200 96 200 177 0 60 -25 107 -72 136 -26 16 -29 20 -15 26 18 6 22 31
9 50 -5 7 -16 6 -37 -4z"/>
<path d="M2493 7238 c-22 -28 -22 -36 0 -51 21 -14 25 -13 47 3 24 18 24 19 6
39 -22 24 -39 27 -53 9z"/>
<path d="M2143 7020 c-18 -10 -44 -37 -59 -59 -23 -36 -26 -48 -22 -101 4 -54
9 -65 40 -97 60 -59 177 -67 233 -15 52 48 83 159 56 201 -16 25 -41 -5 -34
-40 12 -62 -82 -172 -131 -153 -20 8 -20 9 5 80 11 32 23 68 26 79 3 11 11 34
19 52 18 41 18 50 -5 63 -31 16 -93 12 -128 -10z m91 -57 c-14 -61 -67 -183
-80 -183 -16 0 -54 70 -54 100 0 29 26 76 52 94 12 9 37 16 55 16 31 0 33 -2
27 -27z"/>
<path d="M8815 6968 c-11 -7 -38 -18 -60 -24 -22 -6 -85 -28 -140 -49 -55 -20
-117 -41 -137 -47 -23 -6 -40 -18 -44 -30 -8 -26 11 -38 45 -27 59 18 117 40
131 48 9 5 31 12 50 16 19 4 40 11 45 15 6 4 26 13 45 18 95 29 115 40 115 63
0 27 -21 34 -50 17z"/>
<path d="M8592 6733 c-18 -9 -45 -31 -59 -49 -21 -28 -25 -44 -24 -99 0 -70 9
-95 49 -137 30 -32 37 -34 46 -12 4 9 -3 27 -17 43 -12 15 -29 45 -36 67 -12
37 -11 45 8 82 19 38 54 62 69 47 4 -4 12 -32 19 -63 26 -130 47 -181 74 -182
16 0 76 49 96 79 45 66 18 168 -56 218 -41 28 -120 31 -169 6z m142 -47 c65
-27 76 -138 17 -183 -29 -22 -36 -14 -59 70 -35 130 -30 143 42 113z"/>
<path d="M2003 6658 c-35 -38 -43 -64 -43 -131 0 -62 2 -66 40 -105 84 -83
222 -63 276 40 21 40 18 131 -4 158 -28 34 -45 18 -36 -34 15 -84 -1 -125 -61
-157 l-44 -24 -55 27 c-47 23 -57 33 -67 67 -14 48 -7 80 27 120 42 50 11 86
-33 39z"/>
<path d="M8705 6370 c-40 -12 -90 -66 -105 -113 -15 -48 3 -124 37 -162 l24
-25 -23 -2 c-58 -3 -84 4 -110 33 -23 24 -28 38 -28 82 0 29 4 67 9 85 5 17 8
32 6 32 -2 0 -10 3 -19 6 -22 8 -49 -60 -43 -111 9 -79 26 -120 61 -152 33
-30 41 -33 98 -33 35 1 83 5 108 11 36 8 165 26 203 28 5 1 7 11 5 24 -2 14
-11 23 -25 25 -22 3 -22 4 -7 34 22 42 15 139 -12 175 -44 59 -113 83 -179 63z
m101 -62 c17 -8 36 -31 50 -62 21 -46 22 -52 8 -85 -20 -50 -61 -81 -106 -81
-30 0 -47 8 -78 36 -36 33 -40 41 -40 84 0 93 82 146 166 108z"/>
<path d="M1778 6329 c-24 -14 -23 -46 3 -60 17 -9 25 -8 37 5 13 12 13 20 4
41 -13 27 -18 29 -44 14z"/>
<path d="M1906 6303 c-3 -4 -6 -16 -6 -28 0 -19 7 -23 53 -29 28 -4 86 -14
129 -22 80 -16 139 -16 145 1 7 25 -20 36 -118 49 -57 8 -111 17 -119 19 -31
10 -78 16 -84 10z"/>
<path d="M1892 6143 c3 -27 9 -31 166 -113 34 -17 65 -36 68 -41 3 -5 -7 -14
-23 -19 -15 -6 -37 -14 -48 -19 -11 -5 -59 -21 -107 -36 -78 -25 -88 -31 -88
-51 0 -28 17 -30 63 -10 18 8 68 25 112 39 115 37 153 54 159 75 10 32 -2 46
-67 80 -34 18 -98 52 -142 77 -44 24 -84 44 -88 45 -5 0 -7 -12 -5 -27z"/>
<path d="M8724 5931 c-11 -5 -34 -25 -52 -45 -30 -34 -32 -42 -32 -110 0 -58
4 -79 20 -98 10 -14 16 -28 13 -32 -21 -20 -99 10 -123 48 -18 29 -15 139 5
170 19 28 13 46 -15 46 -13 0 -23 -14 -34 -47 -29 -86 -15 -191 31 -235 23
-22 33 -23 205 -26 193 -3 223 3 182 37 -21 17 -21 18 -3 40 15 18 19 40 19
97 0 73 -1 76 -39 116 -35 38 -43 42 -97 45 -32 1 -68 -1 -80 -6z m122 -57
c25 -7 64 -82 64 -123 0 -38 -69 -111 -105 -111 -41 0 -99 36 -119 73 -24 44
-15 95 23 136 24 26 37 31 73 31 23 0 52 -3 64 -6z"/>
<path d="M1860 5761 c0 -17 11 -42 25 -60 l26 -30 -23 -3 c-17 -2 -23 -10 -23
-28 l0 -25 155 4 c85 2 159 7 164 11 5 5 6 16 3 24 -5 13 -25 16 -108 16 -116
0 -139 11 -170 80 -22 48 -49 54 -49 11z"/>
<path d="M1975 5516 c-41 -19 -80 -63 -95 -109 -17 -54 3 -116 53 -165 36 -35
41 -37 106 -37 59 0 72 4 105 29 62 47 82 125 53 206 -17 50 -26 60 -48 60
-23 0 -25 -26 -4 -54 9 -12 15 -42 15 -77 0 -52 -3 -60 -31 -84 -55 -46 -63
-35 -72 100 -4 66 -9 126 -12 133 -6 15 -32 15 -70 -2z m47 -91 c4 -22 7 -70
7 -106 l1 -66 -27 5 c-16 2 -40 16 -55 30 -23 21 -28 34 -28 76 0 41 5 55 27
78 39 40 66 34 75 -17z"/>
<path d="M8746 5318 c-2 -7 -9 -42 -15 -77 -10 -52 -10 -66 1 -72 7 -5 18 -7
23 -6 12 4 30 130 21 152 -7 18 -25 20 -30 3z"/>
<path d="M2089 5143 c-44 -27 -53 -52 -59 -155 -4 -75 -10 -101 -24 -117 -24
-26 -70 -27 -95 -2 -23 23 -42 106 -35 153 5 28 2 36 -12 42 -9 4 -22 2 -28
-4 -16 -16 -11 -133 7 -166 9 -16 18 -37 21 -46 10 -31 67 -60 109 -54 74 9
96 47 107 184 4 51 13 99 20 107 7 8 27 15 46 15 25 0 38 -7 56 -32 19 -28 23
-47 25 -118 1 -47 3 -88 3 -92 0 -18 21 -6 35 22 34 65 10 182 -49 241 -43 44
-82 50 -127 22z"/>
<path d="M8514 4918 c-10 -16 31 -46 74 -53 20 -3 52 -13 71 -21 31 -14 33
-17 26 -52 -6 -35 -34 -124 -57 -184 -11 -30 -29 -31 -93 -3 -73 31 -132 24
-109 -12 6 -10 26 -22 45 -26 19 -5 50 -15 69 -22 19 -7 69 -23 110 -35 41
-13 92 -29 113 -36 58 -21 77 -18 77 11 0 14 -6 27 -12 29 -163 44 -172 52
-144 118 8 18 25 66 37 106 23 73 23 73 53 66 17 -3 57 -15 88 -26 32 -11 62
-17 68 -13 14 9 12 55 -2 55 -13 0 -123 32 -188 55 -163 57 -212 66 -226 43z"/>
<path d="M2324 4629 c-22 -25 -9 -54 26 -54 35 0 48 29 26 54 -24 26 -28 26
-52 0z"/>
<path d="M8279 4598 c-18 -33 -17 -114 1 -132 8 -8 89 -47 179 -87 140 -60
168 -69 188 -60 12 6 23 14 23 19 0 5 -39 26 -87 47 -49 21 -110 48 -138 60
-27 13 -67 30 -87 38 -53 22 -64 49 -39 92 10 18 17 36 14 39 -14 14 -43 4
-54 -16z"/>
<path d="M2365 4295 c-60 -30 -145 -70 -187 -90 -80 -38 -104 -57 -93 -75 11
-17 40 -11 104 20 33 17 71 35 83 40 13 6 30 14 38 19 29 17 170 81 179 81 6
0 13 5 16 10 9 15 -4 50 -18 49 -7 0 -61 -25 -122 -54z"/>
<path d="M8735 4300 c-22 -24 -13 -50 18 -50 36 0 50 21 31 48 -19 27 -26 27
-49 2z"/>
<path d="M8305 4281 c-53 -23 -99 -108 -88 -162 5 -27 3 -31 -10 -26 -8 3 -21
-1 -28 -9 -18 -22 7 -42 132 -108 106 -56 142 -66 155 -45 9 15 -10 30 -81 69
-32 17 -72 40 -87 51 -51 37 -46 130 9 166 35 23 87 12 170 -37 48 -27 79 -39
92 -35 43 13 28 32 -67 84 -97 52 -159 69 -197 52z"/>
<path d="M2495 4166 c-22 -13 -104 -58 -182 -101 -104 -57 -143 -83 -143 -97
0 -29 36 -22 114 21 107 58 205 111 259 139 31 17 47 31 45 41 -5 25 -49 23
-93 -3z"/>
<path d="M2549 4020 c-56 -10 -105 -54 -124 -111 -15 -45 -15 -53 -1 -97 40
-120 159 -165 257 -99 43 29 79 92 79 139 0 42 -29 104 -63 136 -27 26 -97 40
-148 32z m99 -60 c72 -44 80 -133 16 -189 -29 -26 -43 -31 -84 -31 -55 0 -76
15 -105 71 -30 58 1 123 73 155 39 18 63 16 100 -6z"/>
<path d="M8079 3944 c-8 -10 -9 -18 -3 -22 186 -129 368 -243 379 -238 8 3 15
14 15 24 0 16 -62 62 -235 172 -13 8 -45 30 -71 48 -54 36 -66 39 -85 16z"/>
<path d="M2835 3614 c-93 -74 -131 -86 -171 -55 -30 24 -49 27 -60 9 -10 -16
42 -58 73 -58 25 0 26 -1 8 -20 -19 -21 -14 -50 9 -50 8 0 35 17 59 38 24 20
76 63 116 95 71 57 82 75 58 95 -9 8 -33 -6 -92 -54z"/>
<path d="M7876 3648 c-50 -26 -59 -35 -85 -86 -34 -67 -25 -130 27 -185 92
-98 240 -61 287 72 13 39 13 49 0 96 -17 58 -30 73 -92 104 -52 26 -87 26
-137 -1z m147 -73 c19 -19 38 -48 42 -64 14 -63 -54 -141 -122 -141 -21 0 -44
12 -74 39 -41 37 -44 42 -43 90 0 42 6 56 29 81 25 26 36 30 80 30 46 0 56 -4
88 -35z"/>
<path d="M2975 3563 c-3 -11 4 -25 20 -40 40 -38 32 -60 -47 -140 -74 -74
-102 -88 -113 -54 -3 11 -13 25 -21 32 -12 10 -18 9 -31 -3 -14 -14 -12 -18
16 -39 34 -25 38 -40 16 -59 -17 -14 -20 -56 -5 -65 6 -3 22 3 36 14 20 16 29
18 43 9 10 -6 26 -8 36 -4 17 6 17 7 -1 27 -17 19 -16 21 64 102 79 79 82 84
82 128 0 37 -5 50 -27 71 -37 34 -60 41 -68 21z"/>
<path d="M7545 3478 c-50 -18 -116 -78 -137 -125 -23 -53 -19 -81 25 -145 49
-71 207 -239 219 -232 5 4 8 19 6 35 -4 25 -1 29 19 29 36 0 109 47 133 84 27
45 27 127 -1 172 -45 73 -136 95 -214 51 -46 -26 -85 -79 -85 -116 l-1 -26
-29 33 c-37 41 -39 85 -6 131 25 34 87 71 118 71 24 0 35 29 17 41 -17 11 -26
10 -64 -3z m170 -172 c34 -14 52 -38 65 -85 15 -55 -57 -141 -118 -141 -31 0
-77 25 -96 52 -9 12 -16 42 -16 65 0 65 48 114 118 122 7 0 28 -5 47 -13z"/>
<path d="M3137 3322 c-68 -70 -97 -107 -97 -121 0 -6 -5 -20 -11 -30 -30 -47
53 -155 129 -167 34 -5 40 -9 31 -20 -15 -18 -4 -44 18 -44 10 0 54 43 103
101 120 143 116 137 97 156 -15 16 -22 11 -94 -65 -44 -46 -89 -84 -105 -87
-34 -9 -88 17 -116 55 -32 42 -25 56 114 227 25 31 25 32 6 42 -18 9 -28 3
-75 -47z"/>
<path d="M3415 3027 c-50 -50 -66 -109 -45 -174 16 -48 25 -60 74 -91 58 -36
131 -35 180 3 59 45 80 82 80 140 0 60 -26 106 -77 141 -29 19 -49 24 -103 24
-65 0 -68 -1 -109 -43z m196 -34 c40 -36 41 -38 37 -92 -4 -45 -10 -59 -37
-83 -26 -23 -40 -28 -82 -28 -45 0 -55 4 -85 34 -41 41 -45 86 -12 142 42 71
117 83 179 27z"/>
<path d="M7125 3008 c-38 -13 -68 -40 -91 -83 -17 -32 -19 -33 -36 -18 -17 15
-20 15 -34 1 -17 -16 -24 -2 93 -191 26 -43 53 -86 58 -96 46 -79 78 -119 91
-114 23 9 16 42 -21 103 -19 32 -35 60 -35 64 0 3 15 6 34 6 19 0 38 5 41 10
3 6 14 10 24 10 46 0 101 77 101 141 0 123 -112 206 -225 167z m103 -54 c46
-27 66 -63 66 -117 0 -43 -4 -53 -32 -78 -44 -39 -114 -41 -155 -4 -66 62 -69
123 -9 181 40 39 86 45 130 18z"/>
<path d="M3786 2893 c4 -21 10 -45 14 -53 5 -8 11 -37 15 -65 4 -27 14 -65 21
-84 8 -18 14 -37 14 -42 0 -11 -61 -39 -163 -75 -71 -25 -77 -29 -62 -43 18
-18 48 -11 234 53 119 41 124 42 112 19 -52 -98 -91 -188 -87 -199 3 -8 14
-14 25 -14 16 0 39 38 110 183 50 100 91 187 91 194 0 14 -36 27 -50 18 -5 -3
-10 -14 -10 -23 0 -29 -55 -80 -100 -92 -51 -14 -70 -2 -70 46 0 18 -6 53 -14
76 -8 24 -17 59 -21 78 -8 35 -29 59 -53 60 -9 0 -11 -10 -6 -37z"/>
<path d="M6733 2799 c-18 -5 -49 -25 -68 -45 -30 -30 -33 -37 -23 -54 17 -26
26 -25 39 3 12 26 83 67 118 67 29 0 91 -37 91 -55 0 -7 -45 -32 -99 -56 -55
-23 -109 -50 -120 -59 l-21 -15 25 -38 c14 -20 42 -44 62 -52 40 -17 109 -20
118 -5 3 6 14 10 24 10 22 0 66 46 80 83 24 62 1 147 -52 195 -29 27 -120 38
-174 21z m187 -161 c0 -85 -83 -138 -158 -101 -54 26 -52 46 5 73 26 12 66 30
88 40 57 27 65 25 65 -12z"/>
<path d="M6488 2693 c0 -5 -2 -36 -2 -69 -1 -46 -6 -67 -20 -83 l-19 -20 -46
26 c-25 15 -63 40 -83 56 -39 30 -78 30 -78 1 0 -13 142 -114 160 -114 26 0 0
-87 -39 -134 -7 -8 -11 -25 -9 -38 4 -22 5 -22 38 13 19 20 48 63 65 95 16 33
38 69 47 82 l17 23 15 -30 c9 -16 16 -38 16 -48 0 -10 6 -30 14 -44 7 -14 16
-43 20 -65 9 -47 31 -84 51 -84 26 0 26 19 2 92 -14 40 -44 135 -68 211 -34
108 -47 137 -61 137 -10 0 -19 -3 -20 -7z"/>
<path d="M4495 2606 c-69 -30 -93 -79 -140 -286 -7 -30 -16 -62 -19 -71 -5
-10 1 -19 17 -26 23 -11 25 -9 42 50 10 34 22 80 26 102 10 57 46 146 67 168
11 10 37 21 60 24 53 7 129 -28 144 -66 11 -30 3 -153 -13 -183 -6 -10 -15
-43 -20 -71 -6 -29 -13 -64 -16 -79 -5 -24 -2 -28 18 -28 26 0 37 24 66 145
43 181 42 215 -11 269 -35 34 -114 66 -163 66 -15 -1 -42 -7 -58 -14z"/>
<path d="M4154 2585 c-10 -26 1 -38 52 -55 79 -27 79 -27 79 -2 0 18 -9 27
-35 37 -19 7 -48 17 -63 24 -22 9 -29 8 -33 -4z"/>
<path d="M6129 2593 c-14 -3 -15 -11 -7 -49 9 -41 7 -47 -20 -84 l-30 -41 -63
54 c-82 70 -106 82 -125 66 -8 -6 -14 -14 -14 -18 0 -3 38 -37 84 -75 l84 -69
-16 -31 c-9 -17 -29 -47 -44 -67 -35 -44 -36 -63 -5 -54 24 8 54 40 89 95 12
19 36 50 53 68 l30 34 13 -49 c8 -26 18 -77 23 -112 9 -64 28 -131 39 -131 3
0 11 4 18 9 11 6 11 23 2 87 -6 43 -15 92 -20 109 -5 16 -14 59 -20 95 -32
181 -30 174 -71 163z"/>
<path d="M4877 2533 c-18 -17 -5 -33 26 -33 58 0 219 -34 224 -48 3 -7 0 -40
-7 -73 l-13 -59 -66 5 c-36 3 -83 8 -104 11 -28 3 -39 0 -43 -11 -9 -23 -5
-25 82 -35 124 -15 124 -15 124 -69 0 -82 -6 -91 -60 -91 -26 0 -60 4 -76 9
-16 5 -50 11 -76 14 -41 4 -47 2 -52 -16 -3 -12 0 -24 6 -28 6 -4 56 -10 112
-13 56 -4 118 -9 138 -12 49 -7 56 8 63 132 3 55 13 141 22 193 12 76 13 95 2
101 -7 5 -56 11 -108 14 -53 4 -117 9 -142 11 -25 3 -48 2 -52 -2z"/>
<path d="M5604 2506 c-11 -29 1 -61 23 -64 29 -4 48 30 33 58 -12 23 -48 27
-56 6z"/>
</g>
</svg>
