<?xml version="1.0" standalone="no"?>
<!DOCTYPE svg PUBLIC "-//W3C//DTD SVG 20010904//EN"
 "http://www.w3.org/TR/2001/REC-SVG-20010904/DTD/svg10.dtd">
<svg version="1.0" xmlns="http://www.w3.org/2000/svg"
 width="500.000000pt" height="500.000000pt" viewBox="0 0 500.000000 500.000000"
 preserveAspectRatio="xMidYMid meet">

<g transform="translate(0.000000,500.000000) scale(0.100000,-0.100000)"
fill="#000000" stroke="none">
<path d="M3106 3789 c-109 -11 -177 -40 -247 -106 -87 -82 -129 -194 -129
-354 0 -249 88 -393 281 -460 58 -20 85 -22 275 -23 165 -1 214 2 227 13 13
11 17 31 17 98 0 127 5 123 -158 123 -123 0 -143 2 -182 23 -68 34 -83 73 -83
217 0 97 3 124 19 155 33 64 67 75 231 75 176 0 173 -2 173 120 0 82 -2 91
-22 104 -29 19 -277 28 -402 15z"/>
<path d="M3965 3789 c-44 -4 -106 -17 -137 -29 -95 -35 -190 -136 -219 -232
-20 -66 -29 -207 -19 -300 23 -229 155 -356 392 -380 126 -12 354 -3 425 18
114 33 218 131 259 244 22 60 30 266 15 355 -23 131 -99 232 -214 285 -94 44
-295 60 -502 39z m292 -239 c55 -33 63 -62 63 -220 0 -219 -23 -250 -185 -250
-96 0 -97 0 -130 33 -47 47 -58 99 -53 243 4 134 14 159 71 194 46 28 188 28
234 0z"/>
<path d="M362 3768 c-9 -9 -12 -123 -12 -451 0 -407 1 -441 18 -453 27 -21
300 -19 330 2 l22 15 0 438 c0 326 -3 440 -12 449 -17 17 -329 17 -346 0z"/>
<path d="M832 3768 c-7 -7 -12 -21 -12 -33 0 -37 191 -759 209 -790 9 -16 36
-43 60 -60 42 -30 45 -30 189 -33 197 -5 260 15 301 96 10 21 62 207 115 415
76 298 94 381 86 397 -10 18 -21 20 -114 20 -74 0 -107 -4 -115 -13 -6 -8 -42
-141 -81 -298 -96 -386 -89 -361 -107 -357 -12 2 -34 81 -93 327 -45 188 -83
327 -91 332 -22 14 -333 11 -347 -3z"/>
<path d="M1972 3759 c-29 -15 -51 -36 -70 -68 l-27 -46 0 -332 0 -331 30 -43
c58 -81 68 -84 417 -87 368 -4 348 -11 348 118 0 122 4 120 -227 120 -104 0
-193 4 -199 8 -16 10 -26 64 -18 96 l6 26 159 0 c185 0 179 -4 179 109 0 101
-4 102 -193 94 l-148 -6 3 64 3 64 203 5 c241 6 232 1 232 121 0 57 -4 82 -16
93 -13 14 -57 16 -327 16 -298 0 -314 -1 -355 -21z"/>
<path d="M320 1795 l0 -835 2180 0 2180 0 0 835 0 835 -2180 0 -2180 0 0 -835z
m1145 -1 l0 -289 -90 0 -90 0 3 198 c3 117 0 197 -5 197 -5 0 -59 -89 -120
-197 l-110 -198 -70 -3 -69 -3 -41 73 c-23 40 -74 132 -115 203 l-73 130 -3
-202 -2 -203 -90 0 -90 0 0 295 0 296 141 -3 142 -3 96 -178 c52 -97 99 -176
104 -174 5 1 51 81 102 177 l94 175 118 5 c65 3 129 2 143 -1 l25 -5 0 -290z
m1897 279 c57 -26 81 -67 82 -143 l1 -55 -85 -3 -85 -2 -15 32 c-19 42 -59 51
-208 46 -93 -4 -117 -8 -140 -25 -33 -25 -45 -82 -37 -171 10 -100 14 -102
204 -102 173 0 191 5 191 56 0 24 1 24 96 24 l97 0 -5 -64 c-7 -81 -30 -120
-88 -149 -43 -21 -57 -22 -285 -22 -238 0 -240 0 -296 26 -46 22 -60 35 -78
71 -19 40 -21 61 -21 204 0 134 3 165 19 201 41 88 99 104 386 100 199 -3 224
-5 267 -24z m-954 -50 l3 -63 -326 0 -325 0 0 65 0 65 323 -2 322 -3 3 -62z
m1950 -218 c85 -154 156 -286 159 -292 4 -10 -19 -13 -95 -13 l-101 0 -28 50
-28 50 -80 1 c-83 2 -207 2 -261 0 -27 -1 -34 -7 -54 -51 l-23 -50 -99 0 c-54
0 -98 4 -98 9 0 8 230 441 287 539 l24 43 122 -3 122 -3 153 -280z m-1948 -5
l0 -60 -325 0 -325 0 0 60 0 60 325 0 325 0 0 -60z"/>
<path d="M4026 1845 c-28 -52 -48 -96 -45 -99 3 -4 170 -9 202 -7 8 1 -94 201
-103 201 -3 0 -27 -43 -54 -95z"/>
</g>
</svg>
